<svg xmlns="http://www.w3.org/2000/svg" xmlns:xlink="http://www.w3.org/1999/xlink" width="1525" height="728" viewBox="0 0 1525 728">
  <defs>
    <clipPath id="clip-empty_state">
      <rect width="1525" height="728"/>
    </clipPath>
  </defs>
  <g id="empty_state" clip-path="url(#clip-empty_state)">
    <g id="Group_35111" data-name="Group 35111" transform="translate(-240 -355)">
      <rect id="Rectangle_18568" data-name="Rectangle 18568" width="400" height="260" transform="translate(240 355)" fill="rgba(255,255,255,0)"/>
      <g id="Pie_chart-rafiki" data-name="Pie chart-rafiki" transform="translate(230.89 256.42)">
        <g id="freepik--Shadow--inject-74" transform="translate(56.11 340.687)">
          <ellipse id="freepik--path--inject-74" cx="153.235" cy="8.946" rx="153.235" ry="8.946" fill="#f5f5f5"/>
        </g>
        <g id="freepik--Chart--inject-74" transform="translate(71.363 111.77)">
          <path id="Path_34032" data-name="Path 34032" d="M171.1,373.034h2.173L187.309,210.18h-2.165Z" transform="translate(-95.474 -135.171)" fill="#263238"/>
          <path id="Path_34033" data-name="Path 34033" d="M219.219,373.034h-2.165L203.01,210.18h2.173Z" transform="translate(-102.165 -135.171)" fill="#263238"/>
          <path id="Path_34034" data-name="Path 34034" d="M92.1,263.307H279.848l-16.4-144.637H75.7Z" transform="translate(-75.471 -115.983)" fill="#e0e0e0"/>
          <path id="Path_34035" data-name="Path 34035" d="M280.016,263.458H91.849L75.41,118.41H263.578Zm-187.8-.411H279.526L263.182,118.821H75.876Z" transform="translate(-75.41 -115.928)" fill="#407bff"/>
          <rect id="Rectangle_18566" data-name="Rectangle 18566" width="6.765" height="0.411" transform="translate(137.8)" fill="#407bff"/>
          <rect id="Rectangle_18567" data-name="Rectangle 18567" width="18.944" height="0.411" transform="translate(151.71)" fill="#407bff"/>
          <path id="Path_34036" data-name="Path 34036" d="M94.541,263.307H282.29L265.9,118.67H78.15Z" transform="translate(-75.985 -115.983)" fill="#fff"/>
          <path id="Path_34037" data-name="Path 34037" d="M282.466,263.458H94.3L77.86,118.41H266.02Zm-187.8-.411H281.976l-16.32-144.226H78.35Z" transform="translate(-75.924 -115.928)" fill="#407bff"/>
          <path id="Path_34038" data-name="Path 34038" d="M199.862,193.286l19.632-33.446a44.258,44.258,0,0,0-27.8-7.224,36.015,36.015,0,0,0-23.978,11.8Z" transform="translate(-94.765 -123.074)" fill="#407bff"/>
          <path id="Path_34039" data-name="Path 34039" d="M199.862,193.286l19.632-33.446a44.258,44.258,0,0,0-27.8-7.224,36.015,36.015,0,0,0-23.978,11.8Z" transform="translate(-94.765 -123.074)" fill="#fff" opacity="0.7"/>
          <path id="Path_34040" data-name="Path 34040" d="M208.39,192.6l27.819,47.988a45.048,45.048,0,0,0,13.87-10.551c18.177-20.548,14.376-54.335-8.488-74.875a62.435,62.435,0,0,0-7.745-5.935Z" transform="translate(-103.293 -122.391)" fill="#407bff"/>
          <path id="Path_34041" data-name="Path 34041" d="M208.39,192.6l27.819,47.988a45.048,45.048,0,0,0,13.87-10.551c18.177-20.548,14.376-54.335-8.488-74.875a62.435,62.435,0,0,0-7.745-5.935Z" transform="translate(-103.293 -122.391)" opacity="0.2"/>
          <path id="Path_34042" data-name="Path 34042" d="M192.366,199.988l-59.74-15.538c-3.161,20.691,5.248,42.835,22.129,57.986,19.8,17.8,47.577,22.6,69.145,12Z" transform="translate(-87.269 -129.776)" fill="#263238"/>
          <path id="Path_34043" data-name="Path 34043" d="M268.01,139.189h27.8l-.64-5.659h-27.8Z" transform="translate(-115.66 -119.099)" fill="#e0e0e0"/>
          <path id="Path_34044" data-name="Path 34044" d="M281.92,150.329h17.8l-.64-5.659h-17.8Z" transform="translate(-118.576 -121.435)" fill="#e0e0e0"/>
          <path id="Path_34045" data-name="Path 34045" d="M290.99,279.66h22.216l.648,5.659H291.63Z" transform="translate(-120.612 -149.739)" fill="#e0e0e0"/>
          <path id="Path_34046" data-name="Path 34046" d="M295.31,268.52h17.806l.64,5.659h-17.8Z" transform="translate(-121.518 -147.403)" fill="#e0e0e0"/>
          <path id="Path_34047" data-name="Path 34047" d="M275.28,268.52h12.9l.64,5.659h-12.89Z" transform="translate(-117.318 -147.403)" fill="#e0e0e0"/>
          <path id="Path_34048" data-name="Path 34048" d="M123.746,144.67H95.95l.64,5.659h27.8Z" transform="translate(-79.717 -121.435)" fill="#e0e0e0"/>
          <path id="Path_34049" data-name="Path 34049" d="M112.488,133.53H94.69l.64,5.659h17.806Z" transform="translate(-79.453 -119.099)" fill="#e0e0e0"/>
          <path id="Path_34050" data-name="Path 34050" d="M132.854,274.179H110.63l-.64-5.659h22.216Z" transform="translate(-82.661 -147.403)" fill="#e0e0e0"/>
          <path id="Path_34051" data-name="Path 34051" d="M129.7,285.319H111.89l-.64-5.659h17.806Z" transform="translate(-82.925 -149.739)" fill="#e0e0e0"/>
          <path id="Path_34052" data-name="Path 34052" d="M151.028,285.319h-12.9l-.64-5.659h12.9Z" transform="translate(-88.427 -149.739)" fill="#e0e0e0"/>
        </g>
        <g id="freepik--Character--inject-74" transform="translate(233.308 98.58)">
          <path id="Path_34053" data-name="Path 34053" d="M408.69,165.25c.277.443.474.79.7,1.162s.419.735.616,1.106c.4.735.79,1.478,1.13,2.221.735,1.494,1.375,3.011,1.992,4.536a76.193,76.193,0,0,1,2.964,9.4c.206.79.364,1.581.537,2.371l.126.6c0,.079.047.237.071.387l.063.443a7.944,7.944,0,0,1,0,1.841,8.338,8.338,0,0,1-1.138,3.477,9.927,9.927,0,0,1-2.118,2.474,15.632,15.632,0,0,1-4.861,2.7,20.623,20.623,0,0,1-2.482.735,21.056,21.056,0,0,1-2.561.45l-.79-3.422c2.592-1.154,5.35-2.735,6.828-4.489a4.678,4.678,0,0,0,.79-1.249,2.213,2.213,0,0,0,.15-1.027,2.632,2.632,0,0,0-.095-.514l-.253-.869c-.213-.727-.411-1.454-.656-2.173a82.753,82.753,0,0,0-3.161-8.48c-.585-1.391-1.217-2.75-1.857-4.1-.332-.672-.664-1.336-1.012-1.984l-.522-.964-.49-.885Z" transform="translate(-305.972 -112.559)" fill="#b55b52"/>
          <path id="Path_34054" data-name="Path 34054" d="M403.223,203.22l-5.643.838,2.806,4.623s4.007-.656,5.256-3.264Z" transform="translate(-304.907 -120.521)" fill="#b55b52"/>
          <path id="Path_34055" data-name="Path 34055" d="M392.65,206.264l1.865,4.2,4.837-1.565-2.806-4.623Z" transform="translate(-303.873 -120.743)" fill="#b55b52"/>
          <path id="Path_34056" data-name="Path 34056" d="M390.566,407.363a8.8,8.8,0,0,0,1.834-.245.166.166,0,0,0,.126-.134.158.158,0,0,0-.071-.166c-.229-.158-2.324-1.517-3.161-1.154a.593.593,0,0,0-.34.466.925.925,0,0,0,.261.869,1.976,1.976,0,0,0,1.351.364Zm1.375-.482a3.327,3.327,0,0,1-2.466-.119.617.617,0,0,1-.158-.585.229.229,0,0,1,.134-.213C389.879,405.766,391.088,406.359,391.941,406.881Z" transform="translate(-303.093 -162.956)" fill="#407bff"/>
          <path id="Path_34057" data-name="Path 34057" d="M392.786,406.693a.158.158,0,0,0,.087,0,.182.182,0,0,0,.087-.142c0-.079,0-2.079-.727-2.75a.838.838,0,0,0-.7-.213.585.585,0,0,0-.561.458c-.166.79,1.075,2.276,1.731,2.648A.15.15,0,0,0,392.786,406.693Zm-1.138-2.782a.545.545,0,0,1,.364.142,3.714,3.714,0,0,1,.609,2.189c-.648-.53-1.423-1.652-1.32-2.126,0-.079.063-.174.277-.2Z" transform="translate(-303.519 -162.531)" fill="#407bff"/>
          <path id="Path_34058" data-name="Path 34058" d="M382.663,401.934a.174.174,0,0,0,0-.166.166.166,0,0,0-.174-.079c-.34.055-3.288.593-3.817,1.454a.2.2,0,0,0,0,.055.529.529,0,0,0,0,.522.854.854,0,0,0,.7.451c1,.087,2.482-1.352,3.28-2.213C382.655,401.974,382.663,401.934,382.663,401.934Zm-3.7,1.367c.3-.474,1.889-.94,3.1-1.193-1.114,1.138-2.086,1.786-2.648,1.739a.561.561,0,0,1-.458-.308.214.214,0,0,1,0-.206l.008-.008Z" transform="translate(-300.928 -162.135)" fill="#407bff"/>
          <path id="Path_34059" data-name="Path 34059" d="M382.793,401.559h0a.158.158,0,0,0,0-.166c-.047-.055-1.241-1.446-2.371-1.494a1.2,1.2,0,0,0-.9.332c-.356.308-.324.577-.245.743.34.7,2.529.9,3.422.7A.206.206,0,0,0,382.793,401.559Zm-3.209-.972a1.026,1.026,0,0,1,.134-.15.869.869,0,0,1,.672-.237,3.588,3.588,0,0,1,1.936,1.162c-.98.111-2.561-.15-2.766-.577a.205.205,0,0,1,.024-.174Z" transform="translate(-301.058 -161.76)" fill="#407bff"/>
          <path id="Path_34060" data-name="Path 34060" d="M387.7,134.74c-.79,4.125-2.553,13.135.348,15.806,0,0-1.1,4.2-8.757,4.347-8.417.166-4.046-4.094-4.046-4.094,4.584-1.185,4.45-4.592,3.628-7.769Z" transform="translate(-299.987 -106.162)" fill="#b55b52"/>
          <path id="Path_34061" data-name="Path 34061" d="M372.281,122.6a.356.356,0,0,0,.15,0,.34.34,0,0,0,.142-.443,3.225,3.225,0,0,0-2.371-1.778.332.332,0,0,0-.364.3.316.316,0,0,0,.284.356h0a2.576,2.576,0,0,1,1.889,1.43.324.324,0,0,0,.269.134Z" transform="translate(-299.09 -103.151)" fill="#263238"/>
          <path id="Path_34062" data-name="Path 34062" d="M369.7,127.42a15.064,15.064,0,0,1-2.371,3.343,2.371,2.371,0,0,0,1.944.577Z" transform="translate(-298.564 -104.627)" fill="#a02724"/>
          <path id="Path_34063" data-name="Path 34063" d="M368.227,128.413c-1.478,0-2.687-2.371-2.687-5.366s1.209-5.366,2.687-5.366,2.7,2.371,2.7,5.366S369.713,128.413,368.227,128.413Zm0-10.535c-1.367,0-2.49,2.324-2.49,5.169s1.122,5.169,2.49,5.169,2.5-2.316,2.5-5.169S369.6,117.878,368.227,117.878Z" transform="translate(-298.189 -102.585)" fill="#407bff"/>
          <path id="Path_34064" data-name="Path 34064" d="M370.755,125.992c-.071.553-.419.972-.79.933s-.6-.514-.537-1.075.411-.972.79-.94S370.818,125.431,370.755,125.992Z" transform="translate(-299.002 -104.1)" fill="#263238"/>
          <path id="Path_34065" data-name="Path 34065" d="M370.278,124.86l-1.288-.53S369.551,125.429,370.278,124.86Z" transform="translate(-298.912 -103.979)" fill="#263238"/>
          <path id="Path_34066" data-name="Path 34066" d="M388.449,395.028l-6.433,3.019-7.026-14.028L381.423,381Z" transform="translate(-300.17 -157.797)" fill="#b55b52"/>
          <path id="Path_34067" data-name="Path 34067" d="M401.649,403.047H394.71l.767-16.067h6.939Z" transform="translate(-304.305 -159.051)" fill="#b55b52"/>
          <path id="Path_34068" data-name="Path 34068" d="M391.319,406.3h7.793a.537.537,0,0,1,.545.474l.79,6.165a1.138,1.138,0,0,1-1.13,1.233c-2.719-.047-4.031-.206-7.453-.206-2.11,0-5.192.221-8.109.221s-3.027-2.885-1.81-3.161c5.453-1.17,6.323-2.782,8.188-4.315a1.841,1.841,0,0,1,1.185-.411Z" transform="translate(-301.475 -163.102)" fill="#263238"/>
          <path id="Path_34069" data-name="Path 34069" d="M381.816,399.47l6.4-4.742a.53.53,0,0,1,.719.039l4.228,4.378a1.138,1.138,0,0,1-.213,1.66c-2.26,1.62-3.422,2.292-6.236,4.378-1.731,1.288-5.185,4.125-7.579,5.9s-4.149-.419-3.3-1.367c3.8-4.252,4.647-6.844,5.279-9.184A1.913,1.913,0,0,1,381.816,399.47Z" transform="translate(-300.302 -160.65)" fill="#263238"/>
          <path id="Path_34070" data-name="Path 34070" d="M375,384.027l3.754,7.508,6.3-3.3L381.433,381Z" transform="translate(-300.172 -157.797)" opacity="0.2"/>
          <path id="Path_34071" data-name="Path 34071" d="M402.514,386.99h-6.939l-.4,8.283h6.939Z" transform="translate(-304.404 -159.053)" opacity="0.2"/>
          <path id="Path_34072" data-name="Path 34072" d="M404.862,156.437c2.893.569,6.03,10.867,6.03,10.867l-8.1,8.82s-6.828-9.595-5.469-13.2C398.737,159.171,401.456,155.757,404.862,156.437Z" transform="translate(-304.815 -110.693)" fill="#263238"/>
          <path id="Path_34073" data-name="Path 34073" d="M400.333,164.695c-1.47-1.3-2.45-.885-3.122.19-.64,3.09,3.327,9.484,4.924,11.855C402.847,173.823,403.645,167.658,400.333,164.695Z" transform="translate(-304.815 -112.273)" opacity="0.4"/>
          <path id="Path_34074" data-name="Path 34074" d="M359.934,158.46c-.53,3.035-.64,12.274,4.1,40.306l28.2-.553c-.537-11.452-.593-18.517,4.742-42.132a82.7,82.7,0,0,0-11.981-1.344,89.3,89.3,0,0,0-12.8.253c-4.1.451-8.6,1.344-10.63,1.77a2.086,2.086,0,0,0-1.628,1.7Z" transform="translate(-296.961 -110.33)" fill="#263238"/>
          <path id="Path_34075" data-name="Path 34075" d="M389.664,123.388c-1.225,6.789-1.581,9.681-5.461,12.827-5.809,4.742-13.87,1.865-14.7-5.121-.743-6.323,1.391-16.336,8.393-18.359a9.263,9.263,0,0,1,11.768,10.654Z" transform="translate(-298.99 -101.465)" fill="#b55b52"/>
          <path id="Path_34076" data-name="Path 34076" d="M370.964,112.015c0-.213-.15-.443-.134-.656s.079-.435.1-.648a6.207,6.207,0,0,0,0-.664c0-.221.213-.4.261-.616s-.1-.474-.039-.688.166-.411.237-.616.269-.364.348-.569.174-.4.269-.6.04-.466.142-.664.419-.261.53-.45,0-.537.095-.719.356-.292.482-.466.213-.4.348-.569.332-.292.482-.458.411-.213.569-.364.142-.482.308-.632.371-.245.537-.387.4-.2.577-.332.253-.4.435-.514.553.047.743-.071.356-.237.545-.348.364-.229.561-.324.261-.458.466-.545.466,0,.672-.1.34-.34.545-.411.514.158.719.095.348-.379.561-.435.427-.126.64-.174a3.181,3.181,0,0,1,.672,0,2.312,2.312,0,0,0,.656-.063c.221-.063.427,0,.64-.063s.435,0,.648-.063.435,0,.648-.047a4.4,4.4,0,0,1,.648-.079c.221-.016.427-.079.648-.087s.443.174.656.166.435-.142.648-.142.443-.126.656-.126.427.221.648.229.419.15.632.166.458-.205.672-.182.411.229.624.261.451-.1.664-.071.4.205.616.245.466-.1.672-.055.419.134.624.19.427.095.632.158.4.166.609.237.364.277.561.356.387.19.585.277.482,0,.672.071a5.006,5.006,0,0,1,.6.269c.19.1.34.277.53.387s.261.4.443.514.419.134.593.261.49.071.656.205.15.506.316.64.458.126.624.277.3.308.458.458.15.45.292.609.34.269.482.435.34.277.474.443.34.285.466.458.039.5.158.672.451.229.561.419.055.458.158.648.221.371.316.561.364.308.45.506.245.371.324.569.055.443.134.648.158.4.221.609.095.427.158.632.087.427.142.632-.071.458,0,.672.451.348.482.561-.277.482-.245.7.142.411.166.624a5.9,5.9,0,0,0,0,.648,2.963,2.963,0,0,1,0,.648c0,.221.111.427.119.648s.3.443.3.664a3.833,3.833,0,0,1-.04.672c-.039.221-.047.443-.071.664s-.237.419-.269.632a4.83,4.83,0,0,1-.063.664,6.557,6.557,0,0,0-.111.648,3.814,3.814,0,0,0,0,.672c0,.213-.2.4-.253.616s-.277.379-.34.593,0,.458-.063.672-.229.379-.308.585.063.5,0,.7a4.548,4.548,0,0,1-.261.609c-.095.2-.3.356-.4.553s-.079.458-.182.648-.371.3-.482.49-.356.3-.466.49-.126.435-.253.616-.324.308-.45.49-.111.466-.245.64-.142.45-.284.616-.4.245-.545.411-.19.427-.34.593-.4.237-.545.387-.277.356-.435.506-.4.221-.569.364-.4.221-.561.356-.221.435-.4.569-.443.15-.624.277-.443.119-.624.245-.237.45-.427.561-.466.071-.664.174-.356.261-.553.364-.308.364-.514.458-.427.126-.632.213-.474,0-.688.063l-.624.2c-.205.071-.332.411-.545.466s-.522-.237-.735-.19-.387.277-.6.324-.435.079-.648.111-.451-.079-.672-.047-.427.063-.648.079-.419.387-.64.4-.435-.277-.656-.277v.079c-.285,0-.569-.047-.861-.047s-.435-.134-.656-.142-.466.332-.688.308-.411-.269-.632-.3-.419-.134-.632-.174-.49.126-.7.071-.419-.142-.632-.205-.371-.285-.577-.364-.45-.071-.648-.158-.466-.055-.664-.158-.3-.379-.5-.49-.466-.071-.656-.19-.2-.5-.379-.624-.451-.126-.616-.269-.261-.371-.427-.522-.3-.3-.458-.458-.585-.055-.735-.221-.055-.53-.2-.7-.466-.2-.6-.379-.277-.348-.4-.537.079-.553,0-.751-.308-.324-.4-.53-.308-.34-.4-.545-.047-.45-.119-.664-.079-.427-.142-.64-.451-.34-.5-.561.087-.474.047-.688-.206-.427-.229-.648.292-.458.277-.688-.04-.427-.04-.648-.3-.411-.316-.6a4.976,4.976,0,0,0-.039-.593,3.209,3.209,0,0,1,.047-.609,3.956,3.956,0,0,1,0-.609,2.449,2.449,0,0,1,.19-.577c-.174-.15-.4-.237-.561-.387s-.15-.49-.3-.656-.285-.34-.419-.522-.419-.253-.537-.443-.055-.49-.166-.688-.2-.387-.292-.593-.213-.387-.292-.6-.134-.419-.2-.64-.182-.411-.229-.632-.142-.419-.182-.648-.308-.411-.34-.64a5,5,0,0,1,0-.688c0-.229.292-.466.285-.7S370.964,112.245,370.964,112.015Z" transform="translate(-299.298 -98.58)" fill="#263238"/>
          <path id="Path_34077" data-name="Path 34077" d="M373.851,127.178c-.711,1.581.269,1.889.15,3.019-.261,2.482.885,2.371,1.77,1.13.79-1.13,1.581-3.367.877-4.679S374.483,125.74,373.851,127.178Z" transform="translate(-299.877 -104.299)" fill="#b55b52"/>
          <path id="Path_34078" data-name="Path 34078" d="M374.63,210.173s4.307,47.5,8.638,74.235c3.5,21.592,6.465,72.1,6.465,72.1h9.484s3.09-49.3,1.249-70.686c-4.647-54.121,5-58.729-5.058-76.053Z" transform="translate(-300.095 -121.894)" fill="#407bff"/>
          <path id="Path_34079" data-name="Path 34079" d="M385,230.38c-2.466,3.62-5.754,7.793-6.82,12.21.854,8.014,1.849,16.873,2.924,25.393C383.7,260.815,388.162,246.495,385,230.38Z" transform="translate(-300.839 -126.216)" opacity="0.4"/>
          <path id="Path_34080" data-name="Path 34080" d="M362.12,210.34s-8.78,55.1-11.412,76.116c-2.734,21.868,19.15,66.427,19.15,66.427l9.4-5.177s-12.558-46.178-11.7-57.314c3.074-23.4,19.537-80.542,19.537-80.542Z" transform="translate(-295.029 -121.911)" fill="#407bff"/>
          <path id="Path_34081" data-name="Path 34081" d="M382.79,231.295h-5.706a.2.2,0,0,1-.126-.047l-2.719-2.118a.222.222,0,0,1-.079-.182l.672-10.448a.205.205,0,0,1,.205-.19h11.4a.221.221,0,0,1,.158.063.292.292,0,0,1,.055.158l-.672,10.448a.245.245,0,0,1-.087.158l-2.987,2.094a.237.237,0,0,1-.119.063Zm-5.635-.419h5.532l2.853-2,.648-10.132H375.2l-.656,10.148Z" transform="translate(-299.996 -123.685)" fill="#fff"/>
          <path id="Path_34082" data-name="Path 34082" d="M374.4,391.153l11.009-5.6-1.525-4.307L372.1,387.225Z" transform="translate(-299.564 -157.85)" fill="#263238"/>
          <path id="Path_34083" data-name="Path 34083" d="M392.1,394.443h12.052l.688-4.228-12.74-.435Z" transform="translate(-303.758 -159.638)" fill="#263238"/>
          <path id="Path_34084" data-name="Path 34084" d="M393.593,207.615l1.28,2.5c.1.19-.126.4-.451.4l-29.582.577c-.253,0-.466-.119-.482-.277l-.269-2.513c0-.174.206-.324.482-.332l28.554-.561A.514.514,0,0,1,393.593,207.615Z" transform="translate(-297.885 -121.399)" fill="#e0e0e0"/>
          <path id="Path_34085" data-name="Path 34085" d="M396.412,210.84h.79c.158,0,.269-.087.261-.182l-.379-3.264c0-.095-.142-.174-.292-.174H396c-.15,0-.269.087-.261.182l.379,3.264C396.119,210.769,396.254,210.84,396.412,210.84Z" transform="translate(-304.521 -121.359)" fill="#263238"/>
          <path id="Path_34086" data-name="Path 34086" d="M372.951,211.3h.79c.15,0,.269-.087.253-.182l-.379-3.264c0-.095-.142-.174-.292-.174h-.79c-.15,0-.269.087-.253.182l.371,3.264C372.667,211.229,372.8,211.3,372.951,211.3Z" transform="translate(-299.602 -121.456)" fill="#263238"/>
          <path id="Path_34087" data-name="Path 34087" d="M360.5,175.729c.134,1.312.292,2.719.474,4.252,3.462-2.031,3.493-7.84,4.323-10.511C363.74,169.707,360.041,170.474,360.5,175.729Z" transform="translate(-297.124 -113.444)" opacity="0.4"/>
          <path id="Path_34088" data-name="Path 34088" d="M355.826,167.449a88.769,88.769,0,0,1-4,10.5A57.4,57.4,0,0,1,346.176,188a11.064,11.064,0,0,1-2.671,2.592,15.548,15.548,0,0,1-2.94,1.581,25.645,25.645,0,0,1-5.848,1.581,43.713,43.713,0,0,1-11.4.182l.087-3.509a62.389,62.389,0,0,0,10.179-1.889,23.458,23.458,0,0,0,4.465-1.747,7.208,7.208,0,0,0,2.837-2.426,46.1,46.1,0,0,0,2.371-4.426c.735-1.533,1.43-3.161,2.1-4.742,1.312-3.217,2.561-6.583,3.667-9.824Z" transform="translate(-289.336 -112.584)" fill="#b55b52"/>
          <path id="Path_34089" data-name="Path 34089" d="M358.326,157.855c-3.106,1.747-7.216,11.4-7.216,11.4l10.274,6.623s5.967-9.112,5.232-14.415C366.039,157.523,361.558,156.029,358.326,157.855Z" transform="translate(-295.163 -110.847)" fill="#263238"/>
          <path id="Path_34090" data-name="Path 34090" d="M323.376,200.207l-4.821,2.624L317.03,197.3s4.173-1.423,6.6-.04Z" transform="translate(-288.017 -119.144)" fill="#b55b52"/>
          <path id="Path_34091" data-name="Path 34091" d="M320.9,220.178,297.778,174a41.42,41.42,0,0,0-9.855,6.986,43.7,43.7,0,0,0-7.6,9.658Z" transform="translate(-280.32 -114.394)" fill="#407bff"/>
          <path id="Path_34092" data-name="Path 34092" d="M314.278,204.044l-2.418-4.394,4.086-2.15,1.525,5.509Z" transform="translate(-286.933 -119.321)" fill="#b55b52"/>
        </g>
      </g>
    </g>
    <g id="Group_35159" data-name="Group 35159" transform="translate(-270 -50)">
      <g id="Group_35158" data-name="Group 35158" transform="translate(695 -5)">
        <g id="freepik--background-complete--inject-400" transform="translate(0 55)">
          <rect id="Rectangle_18945" data-name="Rectangle 18945" width="348.937" height="0.174" transform="translate(0 228.484)" fill="#ebebeb"/>
          <path id="Path_34265" data-name="Path 34265" d="M176.94,252.359H42.188a3.985,3.985,0,0,1-3.978-3.985V58.95A3.985,3.985,0,0,1,42.188,55H176.94a3.985,3.985,0,0,1,3.985,3.985V248.374A3.985,3.985,0,0,1,176.94,252.359ZM42.188,55.14a3.81,3.81,0,0,0-3.8,3.81V248.374a3.81,3.81,0,0,0,3.8,3.81H176.94a3.817,3.817,0,0,0,3.81-3.81V58.95a3.817,3.817,0,0,0-3.81-3.81Z" transform="translate(-11.544 -55)" fill="#ebebeb"/>
          <path id="Path_34266" data-name="Path 34266" d="M393.244,252.359H258.485a3.992,3.992,0,0,1-3.985-3.985V58.95A3.992,3.992,0,0,1,258.485,55H393.244a3.985,3.985,0,0,1,3.971,3.95V248.374A3.985,3.985,0,0,1,393.244,252.359ZM258.485,55.14a3.817,3.817,0,0,0-3.81,3.81V248.374a3.817,3.817,0,0,0,3.81,3.81H393.244a3.817,3.817,0,0,0,3.81-3.81V58.95a3.817,3.817,0,0,0-3.81-3.81Z" transform="translate(-76.891 -55)" fill="#ebebeb"/>
          <rect id="Rectangle_18946" data-name="Rectangle 18946" width="22.032" height="0.174" transform="translate(291.942 235.128)" fill="#ebebeb"/>
          <rect id="Rectangle_18947" data-name="Rectangle 18947" width="23.316" height="0.174" transform="translate(210.709 233.237)" fill="#ebebeb"/>
          <rect id="Rectangle_18948" data-name="Rectangle 18948" width="43.568" height="0.174" transform="translate(276.77 241.611)" fill="#ebebeb"/>
          <rect id="Rectangle_18949" data-name="Rectangle 18949" width="13.42" height="0.174" transform="translate(36.61 240.439)" fill="#ebebeb"/>
          <rect id="Rectangle_18950" data-name="Rectangle 18950" width="21.139" height="0.174" transform="translate(56.249 240.439)" fill="#ebebeb"/>
          <rect id="Rectangle_18951" data-name="Rectangle 18951" width="38.076" height="0.174" transform="translate(132.303 237.494)" fill="#ebebeb"/>
          <path id="Path_34267" data-name="Path 34267" d="M423.3,205.124c-7.076-2.966-18.8-.1-28.515,11.675-4.487,5.443-8.814,13.427-9.98,21.6.077-9.324.174-19.338.265-28.794a53.281,53.281,0,0,1,5.018-13.3c7.125-14.32,13.015-12.736,22.695-23.944,16.1-18.647,25.326-53.827,9.31-39.779-14.523,12.7-21.55,25.417-26.428,36.45-6.6,14.914-9.254,25.319-10.545,35.759.091-8.877.174-17.028.251-23.316.251-20.511.81-27.105.914-29.143a17.792,17.792,0,0,1,2.331-8.514c3.817-5.995,9.812-9.917,15.681-16.749,13.685-15.9,21.585-35.592,14.99-37.448-6.888-1.905-15.939,6.776-26,27.161-5.764,11.682-7.237,14.446-8.374,37.336-.1,1.989-.537,9.484-.747,19.9-1.626-11.2-4.718-22.332-10.112-29.709-10.405-14.23-18.319-15.59-24.084-14.23s-3.35,16.3,3.154,24.286c9.77,12.017,26.1,9.463,30.937,25.451-.244,14.118-.419,32-.516,48.649-1.647-8.6-3.371-15.751-7.153-22.486-7.035-12.52-15.688-17.984-21.634-12.087-3.706,3.671.593,13.957,8.34,18.145,7.865,4.285,14.32,10.21,16.819,13.776.579.83,2.512,4.013,3.615,5.848-.1,20.329-.091,38.271.084,44.392l.984.091c-.063-1.577,0-11.92.084-25.6,1.717-17.077,13.776-18.005,21.488-21.257C419.954,223.45,430.373,208.1,423.3,205.124Z" transform="translate(-104.752 -65.382)" fill="#e6e6e6"/>
          <path id="Path_34268" data-name="Path 34268" d="M384.387,370.8h20.336a2.268,2.268,0,0,0,2.289-1.556L408.463,344h-27.8l1.438,25.221A2.275,2.275,0,0,0,384.387,370.8Z" transform="translate(-115.007 -142.314)" fill="#e6e6e6"/>
          <path id="Path_34269" data-name="Path 34269" d="M380.594,350.732h26.784c.642,0,1.179-.844,1.256-1.961l.544-8.514c.084-1.312-.5-2.457-1.249-2.457H380.015c-.754,0-1.34,1.145-1.249,2.457l.544,8.514C379.408,349.887,379.952,350.732,380.594,350.732Z" transform="translate(-114.432 -140.441)" fill="#f5f5f5"/>
          <rect id="Rectangle_18952" data-name="Rectangle 18952" width="26.401" height="49.765" transform="translate(103.404 174.099)" fill="#f0f0f0"/>
          <rect id="Rectangle_18953" data-name="Rectangle 18953" width="130.202" height="4.62" transform="translate(108.478 223.864)" fill="#f0f0f0"/>
          <rect id="Rectangle_18954" data-name="Rectangle 18954" width="113.942" height="49.765" transform="translate(243.747 223.857) rotate(180)" fill="#fafafa"/>
          <rect id="Rectangle_18955" data-name="Rectangle 18955" width="93.18" height="15.311" transform="translate(233.369 195.468) rotate(180)" fill="#f0f0f0"/>
          <rect id="Rectangle_18956" data-name="Rectangle 18956" width="93.18" height="15.311" transform="translate(233.369 215.141) rotate(180)" fill="#f0f0f0"/>
          <rect id="Rectangle_18957" data-name="Rectangle 18957" width="26.073" height="3.28" rx="1.64" transform="translate(173.743 178.251)" fill="#fafafa"/>
          <rect id="Rectangle_18958" data-name="Rectangle 18958" width="26.073" height="3.28" rx="1.64" transform="translate(173.743 197.924)" fill="#fafafa"/>
          <rect id="Rectangle_18959" data-name="Rectangle 18959" width="117.459" height="4.459" transform="translate(129.812 169.632)" fill="#f0f0f0"/>
          <rect id="Rectangle_18960" data-name="Rectangle 18960" width="30.092" height="4.459" transform="translate(129.805 174.099) rotate(180)" fill="#e6e6e6"/>
          <path id="Path_34270" data-name="Path 34270" d="M98.3,304.225c-3.015-1.577-8.3-.761-13.043,4.076a20.427,20.427,0,0,0-5.227,9.163c.384-4.111.81-8.535,1.207-12.708a23.777,23.777,0,0,1,2.722-5.688c3.692-6.057,6.239-5.136,10.936-9.721,7.83-7.628,13.26-22.827,5.632-17.238a43.848,43.848,0,0,0-13.064,15.1,53.277,53.277,0,0,0-6.023,15.4c.377-3.915.7-7.516,1-10.294.893-9.072,1.4-11.948,1.514-12.841A7.809,7.809,0,0,1,85.3,275.8c1.94-2.505,4.732-4.013,7.565-6.8,6.651-6.511,10.887-14.921,8.046-15.981-2.973-1.1-7.307,2.394-12.52,11.012-2.994,4.948-3.748,6.113-5.129,16.184-.126.879-.6,4.187-1.089,8.765-.293-5.011-1.235-10.042-3.343-13.511-4.055-6.686-7.5-7.586-10.1-7.167s-2.094,7.076.468,10.852c3.873,5.681,11.166,5.171,12.708,12.422-.642,6.225-1.4,14.125-2.094,21.481a31.7,31.7,0,0,0-2.3-10.21c-2.631-5.8-6.281-8.542-9.072-6.162-1.773,1.479-.265,6.183,3,8.374a24.8,24.8,0,0,1,6.909,6.728c.223.384.956,1.87,1.4,2.722-.879,8.926-1.535,16.847-1.689,19.554l.454.063c.035-.7.447-5.262,1.012-11.306,1.4-7.488,6.769-7.439,10.3-8.584C96.128,312.194,101.313,305.8,98.3,304.225Z" transform="translate(-20.248 -114.766)" fill="#f0f0f0"/>
          <path id="Path_34271" data-name="Path 34271" d="M42.743,276.194c3.9-1.759,10.468-.342,16.051,6.085a25.682,25.682,0,0,1,5.89,11.864c-.188-5.2-.384-10.782-.579-16.051a29.848,29.848,0,0,0-2.994-7.342c-4.187-7.879-7.453-6.909-13.015-13.015-9.261-10.161-14.935-29.639-5.785-22.06a55.3,55.3,0,0,1,15.283,19.931c3.9,8.221,5.534,13.957,6.413,19.785-.181-4.948-.356-9.491-.5-13-.44-11.431-.851-15.1-.942-16.24a9.952,9.952,0,0,0-1.4-4.711c-2.219-3.287-5.583-5.381-9-9.107-7.865-8.668-12.562-19.54-8.919-20.657,3.817-1.165,9,3.538,14.907,14.753,3.392,6.434,4.25,7.949,5.241,20.7.091,1.11.44,5.283.7,11.089.74-6.281,2.3-12.52,5.2-16.749,5.583-8.1,9.98-8.968,13.211-8.3s2.094,9.072-1.4,13.595c-5.276,6.846-14.411,5.66-16.868,14.655.342,7.865.7,17.838,1.012,27.119.789-4.815,1.647-8.835,3.65-12.645,3.741-7.09,8.486-10.266,11.864-7.062,2.094,1.989-.119,7.788-4.383,10.259a30.39,30.39,0,0,0-9.121,7.991c-.314.468-1.34,2.275-1.926,3.315.363,11.333.621,21.341.614,24.754l-.579.049c0-.879-.167-6.644-.433-14.279-1.221-9.512-7.949-9.833-12.3-11.529C44.878,286.362,38.842,277.952,42.743,276.194Z" transform="translate(-11.38 -102.283)" fill="#e6e6e6"/>
          <path id="Path_34272" data-name="Path 34272" d="M67.155,372.11h18.04a2.031,2.031,0,0,0,2.038-1.4L88.51,348.34H63.84l1.284,22.374A2.017,2.017,0,0,0,67.155,372.11Z" transform="translate(-19.288 -143.626)" fill="#e6e6e6"/>
          <path id="Path_34273" data-name="Path 34273" d="M63.8,354.313H87.558c.572,0,1.047-.754,1.117-1.745l.482-7.551c.077-1.165-.44-2.177-1.11-2.177H63.314c-.7,0-1.186,1.012-1.117,2.177l.489,7.551C62.755,353.559,63.23,354.313,63.8,354.313Z" transform="translate(-18.789 -141.964)" fill="#f5f5f5"/>
          <rect id="Rectangle_18961" data-name="Rectangle 18961" width="148.675" height="84.066" transform="translate(42.005 17.349)" fill="#e6e6e6"/>
          <rect id="Rectangle_18962" data-name="Rectangle 18962" width="152.534" height="84.066" transform="translate(42.794 17.349)" fill="#f5f5f5"/>
          <rect id="Rectangle_18963" data-name="Rectangle 18963" width="76.648" height="145.116" rx="4.18" transform="translate(191.615 21.062) rotate(90)" fill="#fff"/>
        </g>
        <g id="freepik--background-simple--inject-400" transform="translate(39.743 65.975)">
          <path id="Path_34274" data-name="Path 34274" d="M239.039,81.385c-18.989-14.432-53.192-15.074-75.063,3.42-24.153,20.427-25.682,57.672-50.086,76.18-24.809,18.843-53.736,9.728-56.8,56.1-2.352,35.731,25.221,35.8,48.3,40.246,41.447,7.977,117.424,47.072,154.6-10.8C302.329,180.616,281.609,113.746,239.039,81.385Z" transform="translate(-56.948 -70.726)" fill="#407bff"/>
          <path id="Path_34275" data-name="Path 34275" d="M239.039,81.385c-18.989-14.432-53.192-15.074-75.063,3.42-24.153,20.427-25.682,57.672-50.086,76.18-24.809,18.843-53.736,9.728-56.8,56.1-2.352,35.731,25.221,35.8,48.3,40.246,41.447,7.977,117.424,47.072,154.6-10.8C302.329,180.616,281.609,113.746,239.039,81.385Z" transform="translate(-56.948 -70.726)" fill="#fff" opacity="0.9"/>
        </g>
        <g id="freepik--Shadow--inject-400" transform="translate(39.158 299.2)">
          <ellipse id="freepik--path--inject-400" cx="135.311" cy="7.9" rx="135.311" ry="7.9" fill="#f5f5f5"/>
        </g>
        <g id="freepik--Calendar--inject-400" transform="translate(76.8 83.723)">
          <path id="Path_34276" data-name="Path 34276" d="M394.659,309.582H377.91v-.7h16.749a11.166,11.166,0,0,0,9.582-5.834l.614.335a11.864,11.864,0,0,1-10.2,6.2Z" transform="translate(-190.976 -158.665)" fill="#407bff"/>
          <rect id="Rectangle_18964" data-name="Rectangle 18964" width="6.86" height="0.698" transform="translate(176.759 150.219)" fill="#407bff"/>
          <path id="Path_34277" data-name="Path 34277" d="M313.731,249.089H117.768a7.572,7.572,0,0,1-7.677-8.374l10.587-121.43a9.352,9.352,0,0,1,9.072-8.374H325.714a7.579,7.579,0,0,1,7.677,8.374l-10.524,121.43a9.352,9.352,0,0,1-9.135,8.374Z" transform="translate(-110.049 -100.614)" fill="#407bff"/>
          <path id="Path_34278" data-name="Path 34278" d="M310.505,253.382H119.427a6.448,6.448,0,0,1-6.5-7.16l9.645-110.62a2.289,2.289,0,0,1,2.226-2.052H326.04a1.849,1.849,0,0,1,1.87,2.052l-9.652,110.62a7.963,7.963,0,0,1-7.753,7.16Z" transform="translate(-110.905 -107.455)" fill="#fff"/>
          <path id="Path_34279" data-name="Path 34279" d="M153.067,116.747a9.3,9.3,0,0,1-9.4-10.294,11.473,11.473,0,0,1,11.166-10.294,9.289,9.289,0,0,1,9.393,10.294h-4.187a5.513,5.513,0,0,0-5.583-6.106,6.8,6.8,0,0,0-6.644,6.106,5.513,5.513,0,0,0,5.583,6.106Z" transform="translate(-120.189 -96.158)" fill="#263238"/>
          <path id="Path_34280" data-name="Path 34280" d="M212.4,116.747a9.3,9.3,0,0,1-9.428-10.294,11.473,11.473,0,0,1,11.166-10.294,9.289,9.289,0,0,1,9.393,10.294h-4.187a5.513,5.513,0,0,0-5.583-6.106,6.8,6.8,0,0,0-6.644,6.106,5.52,5.52,0,0,0,5.583,6.106Z" transform="translate(-138.108 -96.158)" fill="#263238"/>
          <path id="Path_34281" data-name="Path 34281" d="M271.77,116.747a9.3,9.3,0,0,1-9.393-10.294,11.459,11.459,0,0,1,11.166-10.294,9.289,9.289,0,0,1,9.393,10.294h-4.187a5.506,5.506,0,0,0-5.583-6.106,6.8,6.8,0,0,0-6.637,6.106,5.513,5.513,0,0,0,5.583,6.106Z" transform="translate(-156.055 -96.158)" fill="#263238"/>
          <path id="Path_34282" data-name="Path 34282" d="M331.12,116.747a9.3,9.3,0,0,1-9.393-10.294,11.466,11.466,0,0,1,11.166-10.294,9.3,9.3,0,0,1,9.4,10.294h-4.187a5.513,5.513,0,0,0-5.583-6.106,6.8,6.8,0,0,0-6.637,6.106,5.513,5.513,0,0,0,5.583,6.106Z" transform="translate(-173.986 -96.158)" fill="#263238"/>
          <path id="Path_34283" data-name="Path 34283" d="M390.47,116.747a9.3,9.3,0,0,1-9.393-10.294,11.466,11.466,0,0,1,11.166-10.294,9.3,9.3,0,0,1,9.4,10.294h-4.187a5.513,5.513,0,0,0-5.583-6.106,6.8,6.8,0,0,0-6.637,6.106,5.513,5.513,0,0,0,5.583,6.106Z" transform="translate(-191.917 -96.158)" fill="#263238"/>
          <path id="Path_34284" data-name="Path 34284" d="M313.426,251.041H124.533a.307.307,0,0,1-.314-.349l9.414-107.933a.384.384,0,0,1,.377-.349H322.9a.314.314,0,0,1,.321.349L313.8,250.692A.384.384,0,0,1,313.426,251.041Zm-188.482-.7H313.133l9.358-107.235H134.3Z" transform="translate(-114.329 -110.132)" fill="#e0e0e0"/>
          <path id="Path_34285" data-name="Path 34285" d="M316.1,266.838H127.233a.314.314,0,0,1-.314-.349.377.377,0,0,1,.377-.349H316.183a.314.314,0,0,1,.321.349.4.4,0,0,1-.4.349Z" transform="translate(-115.145 -147.514)" fill="#e0e0e0"/>
          <path id="Path_34286" data-name="Path 34286" d="M318.817,235.908H129.93a.321.321,0,0,1-.321-.349.391.391,0,0,1,.384-.349H318.88a.314.314,0,0,1,.321.349.4.4,0,0,1-.384.349Z" transform="translate(-115.958 -138.169)" fill="#e0e0e0"/>
          <path id="Path_34287" data-name="Path 34287" d="M321.517,204.968H132.63a.314.314,0,0,1-.321-.349.4.4,0,0,1,.384-.349H321.58a.314.314,0,0,1,.314.349.377.377,0,0,1-.377.349Z" transform="translate(-116.773 -128.821)" fill="#e0e0e0"/>
          <path id="Path_34288" data-name="Path 34288" d="M324.217,174.038H135.33a.314.314,0,0,1-.321-.349.384.384,0,0,1,.377-.349H324.28a.307.307,0,0,1,.314.349A.377.377,0,0,1,324.217,174.038Z" transform="translate(-117.589 -119.477)" fill="#e0e0e0"/>
          <path id="Path_34289" data-name="Path 34289" d="M361.363,251.041a.307.307,0,0,1-.314-.349l9.414-107.933a.384.384,0,0,1,.377-.349.314.314,0,0,1,.321.349l-9.414,107.933A.391.391,0,0,1,361.363,251.041Z" transform="translate(-185.881 -110.132)" fill="#e0e0e0"/>
          <path id="Path_34290" data-name="Path 34290" d="M327.53,251.041a.314.314,0,0,1-.321-.349l9.414-107.933a.391.391,0,0,1,.384-.349.307.307,0,0,1,.314.349l-9.414,107.933a.377.377,0,0,1-.377.349Z" transform="translate(-175.658 -110.132)" fill="#e0e0e0"/>
          <path id="Path_34291" data-name="Path 34291" d="M293.7,251.041a.314.314,0,0,1-.321-.349l9.414-107.933a.391.391,0,0,1,.384-.349.307.307,0,0,1,.314.349l-9.414,107.933A.384.384,0,0,1,293.7,251.041Z" transform="translate(-165.437 -110.132)" fill="#e0e0e0"/>
          <path id="Path_34292" data-name="Path 34292" d="M259.86,251.041a.314.314,0,0,1-.321-.349l9.393-107.933a.384.384,0,0,1,.377-.349.314.314,0,0,1,.321.349l-9.386,107.933A.384.384,0,0,1,259.86,251.041Z" transform="translate(-155.213 -110.132)" fill="#e0e0e0"/>
          <path id="Path_34293" data-name="Path 34293" d="M226.033,251.041a.307.307,0,0,1-.314-.349l9.414-107.933a.377.377,0,0,1,.377-.349.314.314,0,0,1,.321.349l-9.414,107.933A.391.391,0,0,1,226.033,251.041Z" transform="translate(-144.995 -110.132)" fill="#e0e0e0"/>
          <path id="Path_34294" data-name="Path 34294" d="M192.2,251.041a.314.314,0,0,1-.321-.349l9.414-107.933a.391.391,0,0,1,.384-.349.307.307,0,0,1,.314.349l-9.414,107.933a.377.377,0,0,1-.377.349Z" transform="translate(-134.771 -110.132)" fill="#e0e0e0"/>
          <path id="Path_34295" data-name="Path 34295" d="M158.37,251.041a.314.314,0,0,1-.321-.349l9.414-107.933a.391.391,0,0,1,.384-.349.307.307,0,0,1,.314.349l-9.414,107.933A.384.384,0,0,1,158.37,251.041Z" transform="translate(-124.55 -110.132)" fill="#e0e0e0"/>
          <path id="Path_34296" data-name="Path 34296" d="M288.54,194.2H274.115a2.01,2.01,0,0,1-2.031-2.233l1.117-12.806a2.477,2.477,0,0,1,2.422-2.233h14.425a2.01,2.01,0,0,1,2.038,2.233l-1.117,12.806A2.477,2.477,0,0,1,288.54,194.2Z" transform="translate(-159 -120.561)" fill="#407bff"/>
          <path id="Path_34297" data-name="Path 34297" d="M288.54,194.2H274.115a2.01,2.01,0,0,1-2.031-2.233l1.117-12.806a2.477,2.477,0,0,1,2.422-2.233h14.425a2.01,2.01,0,0,1,2.038,2.233l-1.117,12.806A2.477,2.477,0,0,1,288.54,194.2Z" transform="translate(-159 -120.561)" fill="#fff" opacity="0.6"/>
          <path id="Path_34298" data-name="Path 34298" d="M433.325,194.2H418.16l1.5-17.272h15.172l-5.7,8.64Z" transform="translate(-203.137 -120.561)" fill="#fff"/>
          <path id="Path_34299" data-name="Path 34299" d="M433.724,194.4H417.61l1.57-17.97h16.149l-5.925,8.989Zm-15.353-.7h14.216l-4.027-8.284,5.471-8.291H419.815Z" transform="translate(-202.971 -120.41)" fill="#407bff"/>
          <path id="Path_34300" data-name="Path 34300" d="M353.308,225.135H338.883a2.01,2.01,0,0,1-2.038-2.226l1.117-12.813a2.484,2.484,0,0,1,2.429-2.226h14.425a2.017,2.017,0,0,1,2.038,2.226l-1.117,12.813A2.484,2.484,0,0,1,353.308,225.135Z" transform="translate(-178.566 -129.909)" fill="#407bff"/>
          <path id="Path_34301" data-name="Path 34301" d="M353.308,225.135H338.883a2.01,2.01,0,0,1-2.038-2.226l1.117-12.813a2.484,2.484,0,0,1,2.429-2.226h14.425a2.017,2.017,0,0,1,2.038,2.226l-1.117,12.813A2.484,2.484,0,0,1,353.308,225.135Z" transform="translate(-178.566 -129.909)" fill="#fff" opacity="0.4"/>
          <path id="Path_34302" data-name="Path 34302" d="M382.582,163.272h-38.3a2.01,2.01,0,0,1-2.038-2.233l1.117-12.806A2.477,2.477,0,0,1,345.783,146h38.306a2.017,2.017,0,0,1,2.038,2.233l-1.117,12.806A2.477,2.477,0,0,1,382.582,163.272Z" transform="translate(-180.197 -111.216)" fill="#407bff"/>
          <path id="Path_34303" data-name="Path 34303" d="M173.345,183.209c-5.82,0-10.671-2.059-14.111-6-4.418-5.074-5.081-11.368-1.738-16.435,4.962-7.5,17.893-11.5,26.4-10.391a.321.321,0,0,1,.272.391.391.391,0,0,1-.419.3c-8.3-1.082-20.873,2.791-25.675,10.049-3.782,5.723-1.6,11.808,1.71,15.6,4.613,5.29,10.9,6.037,15.353,5.723a34.735,34.735,0,0,0,23.19-12.1c1.5-1.856,3.8-5.422,2.394-8.374-2.094-4.418-9.072-4.11-14.893-3.357a.321.321,0,0,1-.363-.3.384.384,0,0,1,.335-.391c3.894-.509,13.008-1.689,15.556,3.713,1.577,3.322-.893,7.16-2.5,9.156a35.534,35.534,0,0,1-23.728,12.38C174.531,183.188,173.959,183.209,173.345,183.209Z" transform="translate(-123.746 -112.485)" fill="#407bff"/>
          <path id="Path_34304" data-name="Path 34304" d="M346.393,223.293h-.056a.621.621,0,0,1-.516-.349,16.163,16.163,0,0,0-2.924-4.48.728.728,0,1,1,1.026-1.033,15.262,15.262,0,0,1,2.743,3.971,62.174,62.174,0,0,1,7.767-6.755.672.672,0,1,1,.775,1.1,59.241,59.241,0,0,0-8.256,7.307.761.761,0,0,1-.558.244Z" transform="translate(-180.333 -131.912)" fill="#fff"/>
          <path id="Path_34305" data-name="Path 34305" d="M308.055,286.547a7.076,7.076,0,0,1-7.153-7.837,8.723,8.723,0,0,1,8.521-7.83,7.069,7.069,0,0,1,7.153,7.83,8.73,8.73,0,0,1-8.521,7.837Zm1.277-14.272a7.174,7.174,0,0,0-6.979,6.434,5.813,5.813,0,0,0,5.876,6.441,7.181,7.181,0,0,0,6.979-6.441,5.82,5.82,0,0,0-5.876-6.434Z" transform="translate(-167.698 -148.946)" fill="#407bff"/>
          <path id="Path_34306" data-name="Path 34306" d="M211.885,224.564a7.076,7.076,0,0,1-7.153-7.837,8.73,8.73,0,0,1,8.549-7.837,7.076,7.076,0,0,1,7.153,7.837,8.737,8.737,0,0,1-8.549,7.837Zm1.242-14.279a7.174,7.174,0,0,0-6.979,6.441,5.813,5.813,0,0,0,5.876,6.441A7.181,7.181,0,0,0,219,216.727a5.82,5.82,0,0,0-5.862-6.441Z" transform="translate(-138.643 -130.217)" fill="#407bff"/>
        </g>
        <g id="freepik--Character--inject-400" transform="translate(48.414 117.285)">
          <path id="Path_34307" data-name="Path 34307" d="M201.071,253.708H128.562a4.732,4.732,0,0,1-4.773-5.234h0a5.841,5.841,0,0,1,5.688-5.234h72.509a4.732,4.732,0,0,1,4.773,5.234h0A5.841,5.841,0,0,1,201.071,253.708Z" transform="translate(-85.806 -174.157)" opacity="0.1"/>
          <path id="Path_34308" data-name="Path 34308" d="M95.325,234.41l2.722,1.165-3.65,4.473a15.444,15.444,0,0,1-1.479-3.531,1.4,1.4,0,0,1,1.012-1.738Z" transform="translate(-76.471 -171.49)" fill="#ff8b7b"/>
          <path id="Path_34309" data-name="Path 34309" d="M99.959,240.921l-1.633,1.814a1.214,1.214,0,0,1-1.912-.133l-1.354-2.01,3.65-4.473,1.473,3.489a1.207,1.207,0,0,1-.223,1.312Z" transform="translate(-77.134 -172.007)" fill="#ff8b7b"/>
          <path id="Path_34310" data-name="Path 34310" d="M196.862,248l-94.387-7.481a4.739,4.739,0,0,1-4.348-5.583h0a5.841,5.841,0,0,1,6.085-4.766L198.6,237.64a4.732,4.732,0,0,1,4.348,5.583h0A5.848,5.848,0,0,1,196.862,248Z" transform="translate(-78.037 -170.204)" fill="#407bff"/>
          <path id="Path_34311" data-name="Path 34311" d="M141.443,192.61c1.179,2.659,2.387,5.388,3.608,8.04s2.484,5.346,3.838,7.677a12.607,12.607,0,0,0,.956,1.4c.419.5.886,1,1.361,1.528.97,1.04,2.01,2.094,3.05,3.126,2.094,2.094,4.187,4.187,6.281,6.372l-2.094,2.729a86.535,86.535,0,0,1-7.677-4.983c-1.242-.9-2.457-1.835-3.671-2.854-.607-.509-1.207-1.054-1.821-1.647a17.134,17.134,0,0,1-1.752-2.156,70.043,70.043,0,0,1-4.7-8.179c-1.361-2.757-2.61-5.5-3.775-8.374Z" transform="translate(-89.216 -158.861)" fill="#ff8b7b"/>
          <path id="Path_34312" data-name="Path 34312" d="M103.908,190.375c-1.584,2.589-3.21,5.192-4.836,7.767l-4.85,7.732-.593.963-.07.126v.056h0v.042a1.14,1.14,0,0,0-.091.167,5.534,5.534,0,0,0-.293,1.452,22.974,22.974,0,0,0,.119,4.048c.3,2.847.865,5.855,1.466,8.765l-3.238,1.2a45.536,45.536,0,0,1-3.489-8.989,23.623,23.623,0,0,1-.816-5.115,11.166,11.166,0,0,1,.293-3.113c.1-.307.174-.586.307-.914l.216-.475.091-.188.063-.126.537-1.054c1.4-2.791,2.938-5.5,4.494-8.179s3.175-5.311,4.885-7.921Z" transform="translate(-74.761 -157.051)" fill="#ff8b7b"/>
          <path id="Path_34313" data-name="Path 34313" d="M137.574,164.1c-.126.342-.049.7.174.8s.509-.112.642-.461.049-.7-.174-.8S137.707,163.751,137.574,164.1Z" transform="translate(-89.961 -150.101)" fill="#263238"/>
          <path id="Path_34314" data-name="Path 34314" d="M136.951,165.3a14,14,0,0,0,.53,3.65,2.094,2.094,0,0,1-1.752-.37Z" transform="translate(-89.422 -150.61)" fill="#ff5652"/>
          <path id="Path_34315" data-name="Path 34315" d="M138.6,161.008a.223.223,0,0,1-.119-.063,1.7,1.7,0,0,0-1.521-.328.216.216,0,1,1-.1-.419,2.129,2.129,0,0,1,1.926.433.224.224,0,0,1-.181.377Z" transform="translate(-89.713 -149.047)" fill="#263238"/>
          <path id="Path_34316" data-name="Path 34316" d="M118.379,165.29c-.44,3.755.279,8.486-2.289,10.37,0,0,.537,3.489,6.714,4.445,6.79,1,3.615-2.91,3.615-2.91-3.608-1.445-3.21-4.187-2.282-6.693Z" transform="translate(-83.488 -150.607)" fill="#ff8b7b"/>
          <path id="Path_34317" data-name="Path 34317" d="M112.988,181.436c-.091-1.731,0-4.341,1.075-4.718,1.172-.412,8.1.14,11.578,3.287a10.985,10.985,0,0,0-1.186,5.067Z" transform="translate(-82.543 -154.024)" fill="#263238"/>
          <path id="Path_34318" data-name="Path 34318" d="M81.763,406.112a4.788,4.788,0,0,1-1.8-.516.112.112,0,0,1-.063-.1.1.1,0,0,1,.07-.091c.063,0,1.459-.558,2.094-.258a.544.544,0,0,1,.286.335.44.44,0,0,1-.1.509A.7.7,0,0,1,81.763,406.112Zm-1.473-.6c.642.286,1.556.509,1.8.307,0,0,.1-.077,0-.279a.335.335,0,0,0-.174-.2,2.938,2.938,0,0,0-1.626.174Z" transform="translate(-72.554 -223.046)" fill="#407bff"/>
          <path id="Path_34319" data-name="Path 34319" d="M80.02,405.063a.112.112,0,0,1-.077-.035.1.1,0,0,1,0-.1c0-.056.391-1.326,1-1.626a.579.579,0,0,1,.482,0,.356.356,0,0,1,.272.37c0,.523-1.124,1.277-1.626,1.4Zm1.172-1.612a.432.432,0,0,0-.181.042,2.547,2.547,0,0,0-.817,1.284c.523-.237,1.242-.83,1.263-1.145a.178.178,0,0,0-.133-.154A.321.321,0,0,0,81.193,403.451Z" transform="translate(-72.563 -222.499)" fill="#407bff"/>
          <path id="Path_34320" data-name="Path 34320" d="M132.207,409a7.743,7.743,0,0,1-1.4-.133.1.1,0,0,1,0-.2c.23-.14,2.268-1.305,2.757-.5a.419.419,0,0,1,0,.482A1.935,1.935,0,0,1,132.207,409Zm-1.068-.293c.865.126,2.031.1,2.226-.174a.264.264,0,0,0,0-.244C133.058,407.828,131.816,408.352,131.139,408.708Z" transform="translate(-87.916 -223.904)" fill="#407bff"/>
          <path id="Path_34321" data-name="Path 34321" d="M130.794,408.407a.077.077,0,0,1-.056,0,.1.1,0,0,1-.049-.1,3,3,0,0,1,.642-1.773.816.816,0,0,1,.6-.188c.307.035.4.188.419.314.084.53-.956,1.5-1.507,1.752Zm1.054-1.863a.587.587,0,0,0-.377.14,2.464,2.464,0,0,0-.544,1.4c.551-.342,1.263-1.11,1.207-1.431,0,0,0-.112-.223-.133Z" transform="translate(-87.899 -223.436)" fill="#407bff"/>
          <path id="Path_34322" data-name="Path 34322" d="M123.61,404.533H128.2l.049-10.643h-4.6Z" transform="translate(-85.76 -219.673)" fill="#ff8b7b"/>
          <path id="Path_34323" data-name="Path 34323" d="M72.61,399.864l4.306,1,3.615-10.524-4.306-1Z" transform="translate(-70.352 -218.298)" fill="#ff8b7b"/>
          <path id="Path_34324" data-name="Path 34324" d="M76.608,404.271l-5-1.277a.377.377,0,0,0-.447.209l-1.724,3.776a.7.7,0,0,0,.482.963c1.759.412,2.631.523,4.829,1.075,1.354.342,4.117,1.186,5.988,1.654s2.505-1.34,1.773-1.7a11.935,11.935,0,0,1-5.234-4.271A1.158,1.158,0,0,0,76.608,404.271Z" transform="translate(-69.374 -222.419)" fill="#263238"/>
          <path id="Path_34325" data-name="Path 34325" d="M127.454,408.38h-5.018a.391.391,0,0,0-.384.314l-.747,4.083a.7.7,0,0,0,.7.817c1.807,0,4.418-.133,6.693-.133,2.666,0,2.715.14,5.834.14,1.884,0,2.338-1.905,1.542-2.094-3.629-.782-4.313-.865-7.5-2.791a2.177,2.177,0,0,0-1.124-.335Z" transform="translate(-85.061 -224.051)" fill="#263238"/>
          <path id="Path_34326" data-name="Path 34326" d="M103.821,179.692C99.452,180.041,93.29,191,93.29,191l7.914,7.167a70.165,70.165,0,0,0,6.707-8.821C111.016,184.368,108.287,179.336,103.821,179.692Z" transform="translate(-76.6 -154.953)" fill="#407bff"/>
          <path id="Path_34327" data-name="Path 34327" d="M103.821,179.692C99.452,180.041,93.29,191,93.29,191l7.914,7.167a70.165,70.165,0,0,0,6.707-8.821C111.016,184.368,108.287,179.336,103.821,179.692Z" transform="translate(-76.6 -154.953)" fill="#fff" opacity="0.6"/>
          <path id="Path_34328" data-name="Path 34328" d="M109.317,191l-5.227,10.231.37.342s2.024-2.212,4.278-5.262Z" transform="translate(-79.863 -158.375)" opacity="0.2"/>
          <path id="Path_34329" data-name="Path 34329" d="M127.514,204.262c-.789,5.067-2.038,11.333-3.957,19.052L99.25,219.685c.223-3.489,3.943-19.045,3.21-35.745a4.062,4.062,0,0,1,4.145-4.25c1.2,0,2.519.091,3.817.216a92.4,92.4,0,0,1,10.336,1.535,46.869,46.869,0,0,1,6.853,2.31s1.745,2.561.8,13.218C128.226,199.084,127.94,201.491,127.514,204.262Z" transform="translate(-78.4 -154.957)" fill="#407bff"/>
          <path id="Path_34330" data-name="Path 34330" d="M127.514,204.262c-.789,5.067-2.038,11.333-3.957,19.052L99.25,219.685c.223-3.489,3.943-19.045,3.21-35.745a4.062,4.062,0,0,1,4.145-4.25c1.2,0,2.519.091,3.817.216a92.4,92.4,0,0,1,10.336,1.535,46.869,46.869,0,0,1,6.853,2.31s1.745,2.561.8,13.218C128.226,199.084,127.94,201.491,127.514,204.262Z" transform="translate(-78.4 -154.957)" fill="#fff" opacity="0.6"/>
          <path id="Path_34331" data-name="Path 34331" d="M138.366,210.571c-1.975-1.249-3.824-6.979-2.994-10l3.894,2.722C139.078,205.392,138.791,207.8,138.366,210.571Z" transform="translate(-89.252 -161.266)" opacity="0.2"/>
          <path id="Path_34332" data-name="Path 34332" d="M131.859,188.527c-1.256,4.187,6.351,16.519,6.351,16.519l9.072-4.746a51.509,51.509,0,0,0-5.332-11C138.315,183.949,133.311,183.8,131.859,188.527Z" transform="translate(-88.21 -156.6)" fill="#407bff"/>
          <path id="Path_34333" data-name="Path 34333" d="M131.859,188.527c-1.256,4.187,6.351,16.519,6.351,16.519l9.072-4.746a51.509,51.509,0,0,0-5.332-11C138.315,183.949,133.311,183.8,131.859,188.527Z" transform="translate(-88.21 -156.6)" fill="#fff" opacity="0.6"/>
          <path id="Path_34334" data-name="Path 34334" d="M128.253,393.9l-.021,5.485H123.64l.021-5.485Z" transform="translate(-85.769 -219.676)" opacity="0.2"/>
          <path id="Path_34335" data-name="Path 34335" d="M76.983,389.35l4.306.991-1.87,5.429-4.3-1Z" transform="translate(-71.11 -218.301)" opacity="0.2"/>
          <path id="Path_34336" data-name="Path 34336" d="M120.943,154.549c-1.333,4.376-2.331,6.86-1.019,9.931a5.925,5.925,0,0,0,10.468.991c2.331-3.489,4.117-10.035.635-13.448a5.988,5.988,0,0,0-10.084,2.526Z" transform="translate(-84.461 -146.042)" fill="#ff8b7b"/>
          <path id="Path_34337" data-name="Path 34337" d="M126.905,157.566c-.523,2.24-1.884,6.281-5.234,6.748-1.87.258-4.983-.293-5.269-1.8s.872-1.305.579-2.54-1.821-5.583-.084-8.626c-2.415.2-.761-3.378,3.573-4.187-1.34-.523-.7-4.187,5.988-2.443,3.126.8,5.45,2.031,5.73,3.713,2.847,1.2,3.6,4.222,1.835,5.325s-4.32-.14-4.32-.14S130.911,160.008,126.905,157.566Z" transform="translate(-83.396 -144.25)" fill="#263238"/>
          <path id="Path_34338" data-name="Path 34338" d="M129.107,162.146a4.131,4.131,0,0,0,.865,2.792c.83,1.061,1.11,1.068,1.452-.112.314-1.061,1.075-3.434-.035-4.062A1.521,1.521,0,0,0,129.107,162.146Z" transform="translate(-87.419 -149.173)" fill="#ff8b7b"/>
          <path id="Path_34339" data-name="Path 34339" d="M107.007,239.351s-3.775,36.038-6.092,49.186c-2.582,14.4-19.736,60.715-19.736,60.715L73,347.228c4.187-16.051,10.391-45.941,14.167-57.386,2.847-17.4,0-39.269,4.187-52.822Z" transform="translate(-70.47 -172.278)" fill="#263238"/>
          <path id="Path_34340" data-name="Path 34340" d="M82.821,393.069l-1.507,2.952-9.184-2.31.761-2.792Z" transform="translate(-70.207 -218.776)" fill="#407bff"/>
          <path id="Path_34341" data-name="Path 34341" d="M116.493,260.483a2.016,2.016,0,0,1,.789,0c-1.207,10.761-2.924,25.123-4.278,33.365C111.873,281.873,110.826,261.6,116.493,260.483Z" transform="translate(-82.286 -179.355)" opacity="0.2"/>
          <path id="Path_34342" data-name="Path 34342" d="M127.164,241.182s1.905,38.509,2.184,52.515c.286,14.572-3.2,57.777-3.2,57.777h-7.788s-2.938-40.065-1.354-59.605c-1.877-14.886-5.813-53.038-5.813-53.038Z" transform="translate(-82.008 -172.825)" fill="#263238"/>
          <path id="Path_34343" data-name="Path 34343" d="M172.405,232.287a8.465,8.465,0,0,0-3.727.53l-.565.935a1.431,1.431,0,0,0,.8,2.094l2.729.872,1.333.4a1.4,1.4,0,0,0,1.549-.523l.572-.8a1.4,1.4,0,0,0-.2-1.87l-1.228-1.11A2.17,2.17,0,0,0,172.405,232.287Z" transform="translate(-99.145 -170.84)" fill="#ff8b7b"/>
          <path id="Path_34344" data-name="Path 34344" d="M130.2,395.79l-.314,3.231h-9.47l-.363-2.882Z" transform="translate(-84.685 -220.247)" fill="#407bff"/>
        </g>
      </g>
      <rect id="Rectangle_18965" data-name="Rectangle 18965" width="400" height="260" transform="translate(670 50)" fill="rgba(255,255,255,0)"/>
    </g>
    <g id="Group_35160" data-name="Group 35160" transform="translate(-922 121)">
      <g id="File" transform="translate(922 143)">
        <g id="Group_32185" data-name="Group 32185">
          <g id="Stockholm-icons-_-Files-_-File" data-name="Stockholm-icons-/-Files-/-File">
            <path id="Shape" d="M0,0H80V80H0Z" fill="none" fill-rule="evenodd"/>
            <path id="Combined-Shape" d="M10.19,2H36.457a5,5,0,0,1,3.227,1.183l15.88,13.43a5,5,0,0,1,1.77,3.817V62.277c0,5.967-.067,6.39-6.19,6.39H10.19c-6.123,0-6.19-.42-6.19-6.39V8.39C4,2.423,4.067,2,10.19,2Z" transform="translate(9.333 4.667)" fill="#c5c9d2" opacity="0.3"/>
            <rect id="Rectangle" width="30" height="6.667" rx="1" transform="translate(20 36.667)" fill="#c5c9d2"/>
            <rect id="Rectangle-Copy" width="16.667" height="6.667" rx="1" transform="translate(20 50)" fill="#c5c9d2"/>
          </g>
        </g>
      </g>
    </g>
    <g id="Chart-line_1" data-name="Chart-line#1" transform="translate(160 264)">
      <g id="Group_32350" data-name="Group 32350">
        <g id="Stockholm-icons-_-Shopping-_-Chart-line_1" data-name="Stockholm-icons-/-Shopping-/-Chart-line#1">
          <path id="bound" d="M0,0H80V80H0Z" fill="none" fill-rule="evenodd"/>
          <path id="Path-95" d="M9.667,56.333h50a3.333,3.333,0,0,1,0,6.667H6.333A3.333,3.333,0,0,1,3,59.667V6.333a3.333,3.333,0,0,1,6.667,0Z" transform="translate(7 7)" fill="#c5c9d2"/>
          <path id="Path-97" d="M12.768,33.781A3.335,3.335,0,0,1,7.9,29.221L20.4,15.887a3.333,3.333,0,0,1,4.6-.257l9.863,8.42L47.718,7.767A3.334,3.334,0,1,1,52.951,11.9l-15,19a3.333,3.333,0,0,1-4.78.467l-10.08-8.6Z" transform="translate(16.332 15.166)" fill="#c5c9d2" opacity="0.3"/>
        </g>
      </g>
    </g>
    <g id="Chart-bar_2" data-name="Chart-bar#2" transform="translate(240 264)">
      <g id="Group_32351" data-name="Group 32351">
        <g id="Stockholm-icons-_-Shopping-_-Chart-bar_2" data-name="Stockholm-icons-/-Shopping-/-Chart-bar#2">
          <path id="bound-2" data-name="bound" d="M0,0H80V80H0Z" fill="none" fill-rule="evenodd"/>
          <rect id="Rectangle-62-Copy" width="10" height="43.333" rx="1.5" transform="translate(56.667 13.333)" fill="#c5c9d2" opacity="0.3"/>
          <rect id="Rectangle-62-Copy-2" width="10" height="26.667" rx="1.5" transform="translate(40 30)" fill="#c5c9d2" opacity="0.3"/>
          <path id="Path-95-2" data-name="Path-95" d="M9.667,56.333h50a3.333,3.333,0,0,1,0,6.667H6.333A3.333,3.333,0,0,1,3,59.667V6.333a3.333,3.333,0,0,1,6.667,0Z" transform="translate(7 7)" fill="#c5c9d2"/>
          <rect id="Rectangle-62-Copy-4" width="10" height="20" rx="1.5" transform="translate(23.333 36.667)" fill="#c5c9d2" opacity="0.3"/>
        </g>
      </g>
    </g>
    <g id="chart-pie" transform="translate(80 264)">
      <g id="Group_32349" data-name="Group 32349">
        <g id="Stockholm-icons-_-Shopping-_-Chart-pie" data-name="Stockholm-icons-/-Shopping-/-Chart-pie">
          <path id="bound-3" data-name="bound" d="M0,0H80V80H0Z" fill="none" fill-rule="evenodd"/>
          <path id="Combined-Shape-2" data-name="Combined-Shape" d="M4,35.107l34.325,6.867V4.062A30.52,30.52,0,1,1,4,35.1Z" transform="translate(5.716 5.897)" fill="#c5c9d2" fill-rule="evenodd" opacity="0.3"/>
          <path id="Combined-Shape-Copy" d="M3.06,29.749A30.522,30.522,0,0,1,33.349,3V35.807Z" transform="translate(3.064 2.908)" fill="#c5c9d2" fill-rule="evenodd"/>
        </g>
      </g>
    </g>
  </g>
</svg>
